<?xml version="1.0" encoding="UTF-8"?>
<svg version="1.1" xmlns="http://www.w3.org/2000/svg" width="512" height="512">
<path d="M0 0 C19.37115368 16.64041836 31.89714881 36.0650185 38.3125 60.6875 C38.68181641 62.08742188 38.68181641 62.08742188 39.05859375 63.515625 C45.08728997 91.95444028 37.89205062 121.65947984 22.3125 145.6875 C5.99606746 168.21257507 -16.00550487 182.73554557 -42.6875 189.6875 C-44.08742187 190.05681641 -44.08742187 190.05681641 -45.515625 190.43359375 C-73.95444028 196.46228997 -103.65947984 189.26705062 -127.6875 173.6875 C-150.21257507 157.37106746 -164.73554557 135.36949513 -171.6875 108.6875 C-171.93371094 107.75421875 -172.17992187 106.8209375 -172.43359375 105.859375 C-178.46228997 77.42055972 -171.26705062 47.71552016 -155.6875 23.6875 C-139.37106746 1.16242493 -117.36949513 -13.36054557 -90.6875 -20.3125 C-89.75421875 -20.55871094 -88.8209375 -20.80492187 -87.859375 -21.05859375 C-57.52573641 -27.48897035 -24.1306824 -19.16763424 0 0 Z M-108.6875 36.6875 C-109.40421875 37.29207031 -110.1209375 37.89664063 -110.859375 38.51953125 C-121.06604791 47.91520883 -128.82462941 62.08099789 -129.86450195 76.06835938 C-130.15176141 87.61367192 -130.35534883 97.92849106 -125.6875 108.6875 C-125.32527344 109.56277344 -124.96304688 110.43804687 -124.58984375 111.33984375 C-117.55435408 126.81792103 -104.20591767 138.52598774 -88.625 144.9375 C-71.60081734 150.65224679 -53.57366431 149.49249822 -37.44677734 141.62646484 C-21.97860536 133.37076273 -11.16718063 119.56405607 -5.44921875 103.23046875 C-1.43148992 89.81743559 -2.12876839 73.49992073 -7.6875 60.6875 C-8.23083984 59.37458984 -8.23083984 59.37458984 -8.78515625 58.03515625 C-15.36066689 43.56903285 -27.46140122 32.44875804 -41.6875 25.6875 C-65.19805707 16.9208516 -89.48258021 20.42526953 -108.6875 36.6875 Z " fill="#9544ED" transform="translate(194.6875,299.3125)"/>
<path d="M0 0 C19.37115368 16.64041836 31.89714881 36.0650185 38.3125 60.6875 C38.68181641 62.08742187 38.68181641 62.08742187 39.05859375 63.515625 C45.08728997 91.95444028 37.89205062 121.65947984 22.3125 145.6875 C5.99606746 168.21257507 -16.00550487 182.73554557 -42.6875 189.6875 C-44.08742188 190.05681641 -44.08742188 190.05681641 -45.515625 190.43359375 C-73.95444028 196.46228997 -103.65947984 189.26705062 -127.6875 173.6875 C-150.21257507 157.37106746 -164.73554557 135.36949513 -171.6875 108.6875 C-171.93371094 107.75421875 -172.17992187 106.8209375 -172.43359375 105.859375 C-178.46228997 77.42055972 -171.26705062 47.71552016 -155.6875 23.6875 C-139.37106746 1.16242493 -117.36949513 -13.36054557 -90.6875 -20.3125 C-89.75421875 -20.55871094 -88.8209375 -20.80492188 -87.859375 -21.05859375 C-57.52573641 -27.48897035 -24.1306824 -19.16763424 0 0 Z M-108.6875 36.6875 C-109.40421875 37.29207031 -110.1209375 37.89664063 -110.859375 38.51953125 C-121.06604791 47.91520883 -128.82462941 62.08099789 -129.86450195 76.06835938 C-130.15176141 87.61367192 -130.35534883 97.92849106 -125.6875 108.6875 C-125.32527344 109.56277344 -124.96304688 110.43804687 -124.58984375 111.33984375 C-117.55435408 126.81792103 -104.20591767 138.52598774 -88.625 144.9375 C-71.60081734 150.65224679 -53.57366431 149.49249822 -37.44677734 141.62646484 C-21.97860536 133.37076273 -11.16718063 119.56405607 -5.44921875 103.23046875 C-1.43148992 89.81743559 -2.12876839 73.49992073 -7.6875 60.6875 C-8.23083984 59.37458984 -8.23083984 59.37458984 -8.78515625 58.03515625 C-15.36066689 43.56903285 -27.46140122 32.44875804 -41.6875 25.6875 C-65.19805707 16.9208516 -89.48258021 20.42526953 -108.6875 36.6875 Z " fill="#9544ED" transform="translate(450.6875,43.3125)"/>
<path d="M0 0 C0.85980469 -0.03996094 1.71960938 -0.07992188 2.60546875 -0.12109375 C11.03804731 1.3476745 17.46154449 6.34718784 23.28173828 12.33911133 C23.95619492 13.01283783 24.63065155 13.68656433 25.32554626 14.38070679 C27.52338489 16.58199298 29.70303432 18.80037254 31.8828125 21.01953125 C33.41441828 22.56047513 34.94714116 24.10030941 36.48092651 25.63908386 C40.49345695 29.67060503 44.49073638 33.71691796 48.48492432 37.76660156 C52.57191253 41.90495301 56.67328618 46.02899401 60.7734375 50.15429688 C68.80052481 58.234832 76.81155788 66.33108217 84.8125 74.4375 C87.59729288 73.1670506 89.62693643 71.86735124 91.76980591 69.6870575 C92.32460129 69.12778564 92.87939667 68.56851379 93.45100403 67.99229431 C94.04741196 67.38084061 94.64381989 66.7693869 95.25830078 66.1394043 C95.89631119 65.49365448 96.53432159 64.84790466 97.19166565 64.18258667 C98.5758717 62.78073736 99.95786339 61.37669888 101.33789444 59.97073936 C103.52789186 57.74127756 105.72536894 55.51945395 107.92526245 53.29975891 C114.17911704 46.98792149 120.42340539 40.66675366 126.65234375 34.33032227 C130.4651579 30.45279374 134.29029372 26.58778095 138.1232872 22.73020363 C139.57673682 21.26255735 141.02550878 19.79026242 142.46933365 18.31314659 C158.4975126 1.92076571 158.4975126 1.92076571 168.9140625 -0.19140625 C175.99498137 -0.00506628 181.30440023 1.140355 186.56640625 6.0859375 C190.82756534 10.78861428 193.0880069 15.17386293 193.25 21.625 C193.28996094 22.48480469 193.32992187 23.34460938 193.37109375 24.23046875 C191.9023255 32.66304731 186.90281216 39.08654449 180.91088867 44.90673828 C180.23716217 45.58119492 179.56343567 46.25565155 178.86929321 46.95054626 C176.66800702 49.14838489 174.44962746 51.32803432 172.23046875 53.5078125 C170.68952487 55.03941828 169.14969059 56.57214116 167.61091614 58.10592651 C163.57939497 62.11845695 159.53308204 66.11573638 155.48339844 70.10992432 C151.34504699 74.19691253 147.22100599 78.29828618 143.09570312 82.3984375 C135.015168 90.42552481 126.91891783 98.43655788 118.8125 106.4375 C120.0829494 109.22229288 121.38264876 111.25193643 123.5629425 113.39480591 C124.12221436 113.94960129 124.68148621 114.50439667 125.25770569 115.07600403 C126.17488625 115.97061592 126.17488625 115.97061592 127.1105957 116.88330078 C127.75634552 117.52131119 128.40209534 118.15932159 129.06741333 118.81666565 C130.46926264 120.2008717 131.87330112 121.58286339 133.27926064 122.96289444 C135.50872244 125.15289186 137.73054605 127.35036894 139.95024109 129.55026245 C146.26207851 135.80411704 152.58324634 142.04840539 158.91967773 148.27734375 C162.79720626 152.0901579 166.66221905 155.91529372 170.51979637 159.7482872 C171.98744265 161.20173682 173.45973758 162.65050878 174.93685341 164.09433365 C191.32923429 180.1225126 191.32923429 180.1225126 193.44140625 190.5390625 C193.25506628 197.61998137 192.109645 202.92940023 187.1640625 208.19140625 C182.46138572 212.45256534 178.07613707 214.7130069 171.625 214.875 C170.76519531 214.91496094 169.90539062 214.95492187 169.01953125 214.99609375 C160.58695269 213.5273255 154.16345551 208.52781216 148.34326172 202.53588867 C147.66880508 201.86216217 146.99434845 201.18843567 146.29945374 200.49429321 C144.10161511 198.29300702 141.92196568 196.07462746 139.7421875 193.85546875 C138.21058172 192.31452487 136.67785884 190.77469059 135.14407349 189.23591614 C131.13154305 185.20439497 127.13426362 181.15808204 123.14007568 177.10839844 C119.05308747 172.97004699 114.95171382 168.84600599 110.8515625 164.72070312 C102.82447519 156.640168 94.81344212 148.54391783 86.8125 140.4375 C84.02770712 141.7079494 81.99806357 143.00764876 79.85519409 145.1879425 C79.30039871 145.74721436 78.74560333 146.30648621 78.17399597 146.88270569 C77.27938408 147.79988625 77.27938408 147.79988625 76.36669922 148.7355957 C75.72868881 149.38134552 75.09067841 150.02709534 74.43333435 150.69241333 C73.0491283 152.09426264 71.66713661 153.49830112 70.28710556 154.90426064 C68.09710814 157.13372244 65.89963106 159.35554605 63.69973755 161.57524109 C57.44588296 167.88707851 51.20159461 174.20824634 44.97265625 180.54467773 C41.1598421 184.42220626 37.33470628 188.28721905 33.5017128 192.14479637 C32.04826318 193.61244265 30.59949122 195.08473758 29.15566635 196.56185341 C13.1274874 212.95423429 13.1274874 212.95423429 2.7109375 215.06640625 C-4.36998137 214.88006628 -9.67940023 213.734645 -14.94140625 208.7890625 C-19.20256534 204.08638572 -21.4630069 199.70113707 -21.625 193.25 C-21.66496094 192.39019531 -21.70492188 191.53039062 -21.74609375 190.64453125 C-20.2773255 182.21195269 -15.27781216 175.78845551 -9.28588867 169.96826172 C-8.61216217 169.29380508 -7.93843567 168.61934845 -7.24429321 167.92445374 C-5.04300702 165.72661511 -2.82462746 163.54696568 -0.60546875 161.3671875 C0.93547513 159.83558172 2.47530941 158.30285884 4.01408386 156.76907349 C8.04560503 152.75654305 12.09191796 148.75926362 16.14160156 144.76507568 C20.27995301 140.67808747 24.40399401 136.57671382 28.52929688 132.4765625 C36.609832 124.44947519 44.70608217 116.43844212 52.8125 108.4375 C51.5420506 105.65270712 50.24235124 103.62306357 48.0620575 101.48019409 C47.50278564 100.92539871 46.94351379 100.37060333 46.36729431 99.79899597 C45.75584061 99.20258804 45.1443869 98.60618011 44.5144043 97.99169922 C43.54577957 97.03468361 43.54577957 97.03468361 42.55758667 96.05833435 C41.15573736 94.6741283 39.75169888 93.29213661 38.34573936 91.91210556 C36.11627756 89.72210814 33.89445395 87.52463106 31.67475891 85.32473755 C25.36292149 79.07088296 19.04175366 72.82659461 12.70532227 66.59765625 C8.82779374 62.7848421 4.96278095 58.95970628 1.10520363 55.1267128 C-0.36244265 53.67326318 -1.83473758 52.22449122 -3.31185341 50.78066635 C-19.70423429 34.7524874 -19.70423429 34.7524874 -21.81640625 24.3359375 C-21.63006628 17.25501863 -20.484645 11.94559977 -15.5390625 6.68359375 C-10.83638572 2.42243466 -6.45113707 0.1619931 0 0 Z " fill="#3747D6" transform="translate(298.1875,276.5625)"/>
<path d="M0 0 C0.85980469 -0.03996094 1.71960938 -0.07992188 2.60546875 -0.12109375 C11.03804731 1.3476745 17.46154449 6.34718784 23.28173828 12.33911133 C23.95619492 13.01283783 24.63065155 13.68656433 25.32554626 14.38070679 C27.52338489 16.58199298 29.70303432 18.80037254 31.8828125 21.01953125 C33.41441828 22.56047513 34.94714116 24.10030941 36.48092651 25.63908386 C40.49345695 29.67060503 44.49073638 33.71691796 48.48492432 37.76660156 C52.57191253 41.90495301 56.67328618 46.02899401 60.7734375 50.15429688 C68.80052481 58.234832 76.81155788 66.33108217 84.8125 74.4375 C87.59729288 73.1670506 89.62693643 71.86735124 91.76980591 69.6870575 C92.32460129 69.12778564 92.87939667 68.56851379 93.45100403 67.99229431 C94.04741196 67.38084061 94.64381989 66.7693869 95.25830078 66.1394043 C95.89631119 65.49365448 96.53432159 64.84790466 97.19166565 64.18258667 C98.5758717 62.78073736 99.95786339 61.37669888 101.33789444 59.97073936 C103.52789186 57.74127756 105.72536894 55.51945395 107.92526245 53.29975891 C114.17911704 46.98792149 120.42340539 40.66675366 126.65234375 34.33032227 C130.4651579 30.45279374 134.29029372 26.58778095 138.1232872 22.73020363 C139.57673682 21.26255735 141.02550878 19.79026242 142.46933365 18.31314659 C158.4975126 1.92076571 158.4975126 1.92076571 168.9140625 -0.19140625 C175.99498137 -0.00506628 181.30440023 1.140355 186.56640625 6.0859375 C190.82756534 10.78861428 193.0880069 15.17386293 193.25 21.625 C193.28996094 22.48480469 193.32992187 23.34460938 193.37109375 24.23046875 C191.9023255 32.66304731 186.90281216 39.08654449 180.91088867 44.90673828 C180.23716217 45.58119492 179.56343567 46.25565155 178.86929321 46.95054626 C176.66800702 49.14838489 174.44962746 51.32803432 172.23046875 53.5078125 C170.68952487 55.03941828 169.14969059 56.57214116 167.61091614 58.10592651 C163.57939497 62.11845695 159.53308204 66.11573638 155.48339844 70.10992432 C151.34504699 74.19691253 147.22100599 78.29828618 143.09570312 82.3984375 C135.015168 90.42552481 126.91891783 98.43655788 118.8125 106.4375 C120.0829494 109.22229288 121.38264876 111.25193643 123.5629425 113.39480591 C124.12221436 113.94960129 124.68148621 114.50439667 125.25770569 115.07600403 C126.17488625 115.97061592 126.17488625 115.97061592 127.1105957 116.88330078 C127.75634552 117.52131119 128.40209534 118.15932159 129.06741333 118.81666565 C130.46926264 120.2008717 131.87330112 121.58286339 133.27926064 122.96289444 C135.50872244 125.15289186 137.73054605 127.35036894 139.95024109 129.55026245 C146.26207851 135.80411704 152.58324634 142.04840539 158.91967773 148.27734375 C162.79720626 152.0901579 166.66221905 155.91529372 170.51979637 159.7482872 C171.98744265 161.20173682 173.45973758 162.65050878 174.93685341 164.09433365 C191.32923429 180.1225126 191.32923429 180.1225126 193.44140625 190.5390625 C193.25506628 197.61998137 192.109645 202.92940023 187.1640625 208.19140625 C182.46138572 212.45256534 178.07613707 214.7130069 171.625 214.875 C170.76519531 214.91496094 169.90539062 214.95492187 169.01953125 214.99609375 C160.58695269 213.5273255 154.16345551 208.52781216 148.34326172 202.53588867 C147.66880508 201.86216217 146.99434845 201.18843567 146.29945374 200.49429321 C144.10161511 198.29300702 141.92196568 196.07462746 139.7421875 193.85546875 C138.21058172 192.31452487 136.67785884 190.77469059 135.14407349 189.23591614 C131.13154305 185.20439497 127.13426362 181.15808204 123.14007568 177.10839844 C119.05308747 172.97004699 114.95171382 168.84600599 110.8515625 164.72070312 C102.82447519 156.640168 94.81344212 148.54391783 86.8125 140.4375 C84.02770712 141.7079494 81.99806357 143.00764876 79.85519409 145.1879425 C79.30039871 145.74721436 78.74560333 146.30648621 78.17399597 146.88270569 C77.27938408 147.79988625 77.27938408 147.79988625 76.36669922 148.7355957 C75.72868881 149.38134552 75.09067841 150.02709534 74.43333435 150.69241333 C73.0491283 152.09426264 71.66713661 153.49830112 70.28710556 154.90426064 C68.09710814 157.13372244 65.89963106 159.35554605 63.69973755 161.57524109 C57.44588296 167.88707851 51.20159461 174.20824634 44.97265625 180.54467773 C41.1598421 184.42220626 37.33470628 188.28721905 33.5017128 192.14479637 C32.04826318 193.61244265 30.59949122 195.08473758 29.15566635 196.56185341 C13.1274874 212.95423429 13.1274874 212.95423429 2.7109375 215.06640625 C-4.36998137 214.88006628 -9.67940023 213.734645 -14.94140625 208.7890625 C-19.20256534 204.08638572 -21.4630069 199.70113707 -21.625 193.25 C-21.66496094 192.39019531 -21.70492188 191.53039062 -21.74609375 190.64453125 C-20.2773255 182.21195269 -15.27781216 175.78845551 -9.28588867 169.96826172 C-8.61216217 169.29380508 -7.93843567 168.61934845 -7.24429321 167.92445374 C-5.04300702 165.72661511 -2.82462746 163.54696568 -0.60546875 161.3671875 C0.93547513 159.83558172 2.47530941 158.30285884 4.01408386 156.76907349 C8.04560503 152.75654305 12.09191796 148.75926362 16.14160156 144.76507568 C20.27995301 140.67808747 24.40399401 136.57671382 28.52929688 132.4765625 C36.609832 124.44947519 44.70608217 116.43844212 52.8125 108.4375 C51.5420506 105.65270712 50.24235124 103.62306357 48.0620575 101.48019409 C47.50278564 100.92539871 46.94351379 100.37060333 46.36729431 99.79899597 C45.75584061 99.20258804 45.1443869 98.60618011 44.5144043 97.99169922 C43.54577957 97.03468361 43.54577957 97.03468361 42.55758667 96.05833435 C41.15573736 94.6741283 39.75169888 93.29213661 38.34573936 91.91210556 C36.11627756 89.72210814 33.89445395 87.52463106 31.67475891 85.32473755 C25.36292149 79.07088296 19.04175366 72.82659461 12.70532227 66.59765625 C8.82779374 62.7848421 4.96278095 58.95970628 1.10520363 55.1267128 C-0.36244265 53.67326318 -1.83473758 52.22449122 -3.31185341 50.78066635 C-19.70423429 34.7524874 -19.70423429 34.7524874 -21.81640625 24.3359375 C-21.63006628 17.25501863 -20.484645 11.94559977 -15.5390625 6.68359375 C-10.83638572 2.42243466 -6.45113707 0.1619931 0 0 Z " fill="#3747D6" transform="translate(42.1875,20.5625)"/>
</svg>
